<?xml version="1.0" encoding="UTF-8" standalone="no"?>
<!-- Created with Inkscape (http://www.inkscape.org/) -->

<svg
   xmlns:dc="http://purl.org/dc/elements/1.1/"
   xmlns:cc="http://creativecommons.org/ns#"
   xmlns:rdf="http://www.w3.org/1999/02/22-rdf-syntax-ns#"
   xmlns:svg="http://www.w3.org/2000/svg"
   xmlns="http://www.w3.org/2000/svg"
   xmlns:xlink="http://www.w3.org/1999/xlink"
   xmlns:sodipodi="http://sodipodi.sourceforge.net/DTD/sodipodi-0.dtd"
   xmlns:inkscape="http://www.inkscape.org/namespaces/inkscape"
   width="297mm"
   height="210mm"
   viewBox="0 0 1052.3622 744.09448"
   id="svg2"
   version="1.1"
   inkscape:version="0.91 r13725"
   sodipodi:docname="cartel.svg"
   inkscape:export-filename="/home/fanta/ingobernable/carteles/09062017-Borrado_de_discos_a_lo_barcenas_y_crimpado_de_cable_de_red/cartel.png"
   inkscape:export-xdpi="300"
   inkscape:export-ydpi="300">
  <defs
     id="defs4" />
  <sodipodi:namedview
     id="base"
     pagecolor="#ffffff"
     bordercolor="#666666"
     borderopacity="1.0"
     inkscape:pageopacity="0.0"
     inkscape:pageshadow="2"
     inkscape:zoom="0.49497475"
     inkscape:cx="488.24523"
     inkscape:cy="529.88606"
     inkscape:document-units="px"
     inkscape:current-layer="layer1"
     showgrid="false"
     inkscape:window-width="1366"
     inkscape:window-height="705"
     inkscape:window-x="0"
     inkscape:window-y="27"
     inkscape:window-maximized="1" />
  <metadata
     id="metadata7">
    <rdf:RDF>
      <cc:Work
         rdf:about="">
        <dc:format>image/svg+xml</dc:format>
        <dc:type
           rdf:resource="http://purl.org/dc/dcmitype/StillImage" />
        <dc:title />
      </cc:Work>
    </rdf:RDF>
  </metadata>
  <g
     inkscape:label="Capa 1"
     inkscape:groupmode="layer"
     id="layer1"
     transform="translate(0,-308.26772)">
    <flowRoot
       xml:space="preserve"
       id="flowRoot4136"
       style="font-style:normal;font-weight:normal;font-size:40px;line-height:125%;font-family:sans-serif;text-align:start;letter-spacing:0px;word-spacing:0px;text-anchor:start;fill:#000000;fill-opacity:1;stroke:none;stroke-width:1px;stroke-linecap:butt;stroke-linejoin:miter;stroke-opacity:1"
       transform="matrix(1.0703032,0,0,1.0703032,780.87471,181.39454)"><flowRegion
         id="flowRegion4138"><rect
           id="rect4140"
           width="1257.1428"
           height="465.71429"
           x="-717.14288"
           y="126.95162"
           style="text-align:start;text-anchor:start" /></flowRegion><flowPara
         id="flowPara4142"
         style="font-style:normal;font-variant:normal;font-weight:normal;font-stretch:normal;font-family:'Systematic J';-inkscape-font-specification:'Systematic J';text-align:justify;text-anchor:start">BORRADO DE DISCOS A LO BARCENAS </flowPara><flowPara
         style="font-style:normal;font-variant:normal;font-weight:normal;font-stretch:normal;font-family:'Systematic J';-inkscape-font-specification:'Systematic J';text-align:justify;text-anchor:start"
         id="flowPara4209">Y CRIMPADO DE CABLEADO DE RED</flowPara></flowRoot>    <g
       id="g4414"
       transform="translate(0,2)">
      <image
         sodipodi:absref="/home/fanta/ingobernable/carteles/09062017-Borrado_de_discos_a_lo_barcenas_y_crimpado_de_cable_de_red/imgs/000.jpg"
         xlink:href="imgs/000.jpg"
         width="759.9115"
         height="602.59644"
         preserveAspectRatio="none"
         id="image4206"
         x="10"
         y="449.76578" />
      <image
         sodipodi:absref="/home/fanta/ingobernable/carteles/09062017-Borrado_de_discos_a_lo_barcenas_y_crimpado_de_cable_de_red/imgs/003.jpg"
         xlink:href="imgs/003.jpg"
         width="377.5"
         height="563.51886"
         preserveAspectRatio="none"
         id="image4390"
         x="764.19733"
         y="459.43359" />
    </g>
    <g
       id="g4393"
       transform="matrix(0.72219885,0,0,0.72219885,257.26198,-268.80035)">
      <flowRoot
         transform="matrix(2.0198904,0,0,2.9984372,577.57522,615.47354)"
         style="font-style:normal;font-weight:normal;font-size:40px;line-height:125%;font-family:sans-serif;letter-spacing:0px;word-spacing:0px;fill:#000000;fill-opacity:1;stroke:none;stroke-width:1px;stroke-linecap:butt;stroke-linejoin:miter;stroke-opacity:1"
         id="flowRoot4559"
         xml:space="preserve"><flowRegion
           id="flowRegion4561"><rect
             style="fill:#000000"
             y="66.951622"
             x="111.42857"
             height="285.71429"
             width="757.14288"
             id="rect4563" /></flowRegion><flowPara
           id="flowPara4569"
           style="font-style:normal;font-variant:normal;font-weight:normal;font-stretch:normal;font-size:25.42200851px;font-family:HACKED;-inkscape-font-specification:HACKED;fill:#000000">INGOBERLAB</flowPara></flowRoot>      <g
         transform="translate(80,104)"
         id="g4290">
        <path
           style="fill:#000000;fill-opacity:1"
           d="m 834.95059,923.23861 c -0.2128,-0.2217 -3.086,-2.8512 -6.3847,-5.8434 -3.2988,-2.9923 -6.29,-5.7125 -6.6472,-6.045 -0.3571,-0.3326 -1.6128,-1.475 -2.7904,-2.539 -1.1775,-1.0638 -4.1669,-3.784 -6.6429,-6.045 -2.4761,-2.26073 -5.4134,-4.92655 -6.5274,-5.92391 -1.1141,-0.99748 -2.32,-2.08551 -2.6799,-2.41809 -0.3598,-0.33245 -1.128,-1.04226 -1.707,-1.57736 -1.0343,-0.95602 -8.5712,-7.81429 -10.9913,-10.00172 -2.385,-2.15566 -6.0293,-5.48383 -7.7085,-7.03973 -0.9332,-0.86463 -3.2192,-2.93201 -5.0802,-4.59418 -7.1883,-6.42057 -10.0154,-9.69552 -12.8368,-14.87026 -3.6798,-6.74926 -5.697,-15.19318 -5.3392,-22.34906 0.4876,-9.74926 3.5599,-18.14828 9.3378,-25.52705 4.8439,-6.1859 12.0207,-11.40709 19.3035,-14.04347 5.2295,-1.89306 9.463,-2.62077 15.1637,-2.60655 11.4456,0.0286 21.4561,3.94923 29.691,11.62867 1.0363,0.96639 1.9634,1.75706 2.0602,1.75706 0.097,0 0.8267,-0.60545 1.6219,-1.34547 6.8003,-6.32805 14.5511,-10.14852 23.5705,-11.61806 3.4755,-0.56627 10.1236,-0.56732 13.5407,-0.003 9.2597,1.5315 17.3735,5.67578 23.9104,12.21259 6.812,6.81202 10.7808,14.42071 12.3749,23.72396 1.662,9.69993 0.04,19.39905 -4.7106,28.16953 -3.0018,5.54179 -4.3888,7.08437 -15.7344,17.49946 -5.4512,5.00412 -10.5029,9.64244 -11.2261,10.30738 -0.7231,0.66494 -1.9212,1.76291 -2.6623,2.43992 -0.741,0.67701 -2.8748,2.63557 -4.7416,4.35237 -1.8669,1.7168 -4.58,4.20952 -6.0292,5.53941 -1.4492,1.32981 -2.8586,2.6356 -3.1319,2.90153 -0.2733,0.26607 -0.9877,0.90694 -1.5875,1.4244 -0.5998,0.51746 -2.3934,2.14963 -3.9857,3.62703 -2.92,2.7091 -5.0582,4.6817 -7.2383,6.6773 -0.6528,0.5977 -1.4758,1.3587 -1.8289,1.6911 -0.3531,0.3325 -1.66,1.5293 -2.9041,2.6598 -3.364,3.0566 -5.233,4.7721 -7.1781,6.589 -0.961,0.8977 -1.7802,1.623 -1.8204,1.6119 -0.04,-0.013 -0.2472,-0.2014 -0.46,-0.4231 z"
           id="path4732"
           inkscape:connector-curvature="0" />
        <flowRoot
           xml:space="preserve"
           id="flowRoot4559-3"
           style="font-style:normal;font-weight:normal;font-size:40px;line-height:125%;font-family:sans-serif;letter-spacing:0px;word-spacing:0px;fill:#000000;fill-opacity:1;stroke:none;stroke-width:1px;stroke-linecap:butt;stroke-linejoin:miter;stroke-opacity:1"
           transform="matrix(2.3165869,0,0,3.4388699,537.92657,456.7219)"><flowRegion
             id="flowRegion4561-6"><rect
               id="rect4563-0"
               width="757.14288"
               height="285.71429"
               x="111.42857"
               y="66.951622"
               style="fill:#000000" /></flowRegion><flowPara
             id="flowPara4565-5"
             style="font-style:normal;font-variant:normal;font-weight:normal;font-stretch:normal;font-size:25.42200851px;font-family:HACKED;-inkscape-font-specification:HACKED;fill:#000000" /><flowPara
             style="font-style:normal;font-variant:normal;font-weight:normal;font-stretch:normal;font-size:25.42200851px;font-family:HACKED;-inkscape-font-specification:HACKED;fill:#000000"
             id="flowPara4245-2"><flowSpan
               style="fill:#ffffff"
               id="flowSpan4247-9">301</flowSpan></flowPara><flowPara
             style="font-size:25.42200851px;fill:#000000"
             id="flowPara4569-4" /></flowRoot>      </g>
    </g>
    <flowRoot
       xml:space="preserve"
       id="flowRoot4136-3"
       style="font-style:normal;font-weight:normal;font-size:40px;line-height:125%;font-family:sans-serif;text-align:start;letter-spacing:0px;word-spacing:0px;text-anchor:start;fill:#000000;fill-opacity:1;stroke:none;stroke-width:1px;stroke-linecap:butt;stroke-linejoin:miter;stroke-opacity:1"
       transform="matrix(1.0703032,0,0,1.0703032,785.26507,287.35883)"><flowRegion
         id="flowRegion4138-7"><rect
           id="rect4140-3"
           width="1257.1428"
           height="465.71429"
           x="-717.14288"
           y="126.95162"
           style="text-align:start;text-anchor:start" /></flowRegion><flowPara
         style="font-style:normal;font-variant:normal;font-weight:normal;font-stretch:normal;font-family:'Systematic J';-inkscape-font-specification:'Systematic J';text-align:start;text-anchor:start"
         id="flowPara4329">09 JUNIO                  A LAS 19:30</flowPara></flowRoot>  </g>
</svg>
