<?xml version="1.0" encoding="UTF-8" standalone="no"?>
<!-- Created with Inkscape (http://www.inkscape.org/) -->

<svg
   xmlns:dc="http://purl.org/dc/elements/1.1/"
   xmlns:cc="http://creativecommons.org/ns#"
   xmlns:rdf="http://www.w3.org/1999/02/22-rdf-syntax-ns#"
   xmlns:svg="http://www.w3.org/2000/svg"
   xmlns="http://www.w3.org/2000/svg"
   xmlns:xlink="http://www.w3.org/1999/xlink"
   xmlns:sodipodi="http://sodipodi.sourceforge.net/DTD/sodipodi-0.dtd"
   xmlns:inkscape="http://www.inkscape.org/namespaces/inkscape"
   width="1052.3622"
   height="744.09448"
   viewBox="0 0 1052.3622 744.09448"
   id="svg2"
   version="1.1"
   inkscape:version="0.91 r13725"
   sodipodi:docname="wp-y-nextcloud.svg"
   inkscape:export-filename="/home/fanta/carteles/ingobernable/Instalación_wordpress_y_nextcloud/wp-y-nextcloud.png"
   inkscape:export-xdpi="300"
   inkscape:export-ydpi="300">
  <defs
     id="defs4">
    <filter
       style="color-interpolation-filters:sRGB;"
       inkscape:label="Colorize"
       id="filter5392">
      <feColorMatrix
         values="1 0 0 0 0 0 1 0 0 0 0 0 1 0 0 0 0 0 1 0"
         id="feColorMatrix5394"
         result="fbSourceGraphic" />
      <feColorMatrix
         result="fbSourceGraphicAlpha"
         in="fbSourceGraphic"
         values="0 0 0 -1 0 0 0 0 -1 0 0 0 0 -1 0 0 0 0 1 0"
         id="feColorMatrix5396" />
      <feColorMatrix
         id="feColorMatrix5398"
         values="1 0 0 0 0 0 1 0 0 0 0 0 1 0 0 0 0 0 1 0"
         in="fbSourceGraphic"
         result="fbSourceGraphic" />
      <feColorMatrix
         result="fbSourceGraphicAlpha"
         in="fbSourceGraphic"
         values="0 0 0 -1 0 0 0 0 -1 0 0 0 0 -1 0 0 0 0 1 0"
         id="feColorMatrix5438" />
      <feComposite
         id="feComposite5440"
         in2="fbSourceGraphic"
         operator="arithmetic"
         k1="0"
         k2="1"
         result="composite1"
         in="fbSourceGraphic" />
      <feColorMatrix
         id="feColorMatrix5442"
         in="composite1"
         values="1"
         type="saturate"
         result="colormatrix1" />
      <feFlood
         id="feFlood5444"
         flood-opacity="1"
         flood-color="rgb(158,67,0)"
         result="flood1" />
      <feBlend
         id="feBlend5446"
         in2="colormatrix1"
         in="flood1"
         mode="multiply"
         result="blend1" />
      <feBlend
         id="feBlend5448"
         in2="blend1"
         mode="screen"
         result="blend2" />
      <feColorMatrix
         id="feColorMatrix5450"
         in="blend2"
         values="1"
         type="saturate"
         result="colormatrix2" />
      <feComposite
         id="feComposite5452"
         in2="fbSourceGraphic"
         in="colormatrix2"
         operator="in"
         k2="1"
         result="composite2" />
    </filter>
  </defs>
  <sodipodi:namedview
     id="base"
     pagecolor="#ffffff"
     bordercolor="#666666"
     borderopacity="1.0"
     inkscape:pageopacity="0.0"
     inkscape:pageshadow="2"
     inkscape:zoom="0.49314627"
     inkscape:cx="448.52568"
     inkscape:cy="422.21887"
     inkscape:document-units="px"
     inkscape:current-layer="layer1"
     showgrid="false"
     units="px"
     inkscape:window-width="1366"
     inkscape:window-height="705"
     inkscape:window-x="0"
     inkscape:window-y="27"
     inkscape:window-maximized="1"
     showguides="true" />
  <metadata
     id="metadata7">
    <rdf:RDF>
      <cc:Work
         rdf:about="">
        <dc:format>image/svg+xml</dc:format>
        <dc:type
           rdf:resource="http://purl.org/dc/dcmitype/StillImage" />
        <dc:title />
      </cc:Work>
    </rdf:RDF>
  </metadata>
  <g
     inkscape:label="Capa 1"
     inkscape:groupmode="layer"
     id="layer1"
     transform="translate(0,-308.26772)">
    <text
       xml:space="preserve"
       style="font-style:normal;font-weight:normal;font-size:40px;line-height:125%;font-family:sans-serif;letter-spacing:0px;word-spacing:0px;fill:#000000;fill-opacity:1;stroke:none;stroke-width:1px;stroke-linecap:butt;stroke-linejoin:miter;stroke-opacity:1"
       x="117.1777"
       y="999.83423"
       id="text4228"
       sodipodi:linespacing="125%"><tspan
         sodipodi:role="line"
         id="tspan4230"
         x="117.1777"
         y="999.83423" /></text>
    <image
       sodipodi:absref="/home/fanta/carteles/ingobernable/Instalación_wordpress_y_nextcloud/imgs/001.jpg"
       xlink:href="imgs/001.jpg"
       y="308.26773"
       x="0"
       id="image3465"
       preserveAspectRatio="none"
       height="744.09448"
       width="1052.3622" />
    <rect
       style="opacity:0.46700003;fill:#828746;fill-opacity:1;stroke:none;stroke-width:10;stroke-miterlimit:4;stroke-dasharray:none;stroke-dashoffset:0;stroke-opacity:1"
       id="rect3682"
       width="479.91354"
       height="142.6313"
       x="-54.190388"
       y="574.32208"
       ry="22.691343" />
    <rect
       style="opacity:0.46700003;fill:#828746;fill-opacity:1;stroke:none;stroke-width:10;stroke-miterlimit:4;stroke-dasharray:none;stroke-dashoffset:0;stroke-opacity:1"
       id="rect3616"
       width="1052.3622"
       height="194.95216"
       x="0"
       y="857.41003" />
    <rect
       style="opacity:0.46700003;fill:#828746;fill-opacity:1;stroke:none;stroke-width:10;stroke-miterlimit:4;stroke-dasharray:none;stroke-dashoffset:0;stroke-opacity:1"
       id="rect3614"
       width="148.67136"
       height="21.992447"
       x="903.6908"
       y="438.80069" />
    <rect
       style="opacity:0.46700003;fill:#828746;fill-opacity:1;stroke:none;stroke-width:10;stroke-miterlimit:4;stroke-dasharray:none;stroke-dashoffset:0;stroke-opacity:1"
       id="rect3612"
       width="503.77188"
       height="82.905434"
       x="0"
       y="438.67334" />
    <rect
       style="opacity:0.46700003;fill:#828746;fill-opacity:1;stroke:none;stroke-width:10;stroke-miterlimit:4;stroke-dasharray:none;stroke-dashoffset:0;stroke-opacity:1"
       id="rect3610"
       width="1052.3622"
       height="130.67497"
       x="0"
       y="308.26773" />
    <path
       style="fill:#828746;fill-opacity:1"
       d="m 953.8894,448.07766 c -0.21282,-0.2217 -3.08593,-2.8512 -6.38472,-5.8434 -3.29879,-2.9923 -6.28999,-5.7125 -6.64714,-6.045 -0.35715,-0.3326 -1.61282,-1.475 -2.79038,-2.539 -1.17756,-1.0638 -4.16689,-3.784 -6.64296,-6.045 -2.47606,-2.26073 -5.41341,-4.92655 -6.52742,-5.92391 -1.11403,-0.99748 -2.31995,-2.08551 -2.67983,-2.41809 -0.35988,-0.33245 -1.12803,-1.04226 -1.70698,-1.57736 -1.03435,-0.95602 -8.5712,-7.81429 -10.99133,-10.00172 -2.38499,-2.15566 -6.02935,-5.48383 -7.70856,-7.03973 -0.93314,-0.86463 -3.21921,-2.93201 -5.08014,-4.59418 -7.18836,-6.42057 -10.01547,-9.69552 -12.83681,-14.87026 -3.6798,-6.74926 -5.69706,-15.19318 -5.33922,-22.34906 0.48756,-9.74926 3.55993,-18.14828 9.33786,-25.52705 4.84383,-6.1859 12.02065,-11.40709 19.30349,-14.04347 5.22948,-1.89306 9.46293,-2.62077 15.16367,-2.60655 11.44564,0.0286 21.4561,3.94923 29.69099,11.62867 1.03628,0.96639 1.96337,1.75706 2.06021,1.75706 0.0969,0 0.8267,-0.60545 1.62193,-1.34547 6.80023,-6.32805 14.55111,-10.14852 23.57044,-11.61806 3.47552,-0.56627 10.12359,-0.56732 13.54072,-0.003 9.25968,1.5315 17.37358,5.67578 23.91038,12.21259 6.812,6.81202 10.7809,14.42071 12.3749,23.72396 1.662,9.69993 0.04,19.39905 -4.7106,28.16953 -3.0018,5.54179 -4.3888,7.08437 -15.7344,17.49946 -5.4512,5.00412 -10.50289,9.64244 -11.22605,10.30738 -0.72316,0.66494 -1.92118,1.76291 -2.66228,2.43992 -0.74109,0.67701 -2.87485,2.63557 -4.74169,4.35237 -1.86684,1.7168 -4.57996,4.20952 -6.02917,5.53941 -1.44922,1.32981 -2.85855,2.6356 -3.13188,2.90153 -0.27332,0.26607 -0.98768,0.90694 -1.58749,1.4244 -0.59979,0.51746 -2.39338,2.14963 -3.98574,3.62703 -2.92001,2.7091 -5.05818,4.6817 -7.23824,6.6773 -0.65279,0.5977 -1.47582,1.3587 -1.82893,1.6911 -0.35312,0.3325 -1.65997,1.5293 -2.90409,2.6598 -3.36402,3.0566 -5.23298,4.7721 -7.17812,6.589 -0.96104,0.8977 -1.78023,1.623 -1.8204,1.6119 -0.0402,-0.013 -0.2472,-0.2014 -0.46002,-0.4231 z"
       id="path4732"
       inkscape:connector-curvature="0" />
    <flowRoot
       xml:space="preserve"
       id="flowRoot4559"
       style="font-style:normal;font-weight:normal;font-size:40px;line-height:125%;font-family:sans-serif;letter-spacing:0px;word-spacing:0px;fill:#ffffff;fill-opacity:1;stroke:none;stroke-width:1px;stroke-linecap:butt;stroke-linejoin:miter;stroke-opacity:1"
       transform="matrix(2.6409691,0,0,3.9204008,615.88009,51.37254)"><flowRegion
         id="flowRegion4561"><rect
           id="rect4563"
           width="757.14288"
           height="285.71429"
           x="111.42857"
           y="66.951622"
           style="fill:#ffffff" /></flowRegion><flowPara
         id="flowPara4565"
         style="font-style:normal;font-variant:normal;font-weight:normal;font-stretch:normal;font-size:25.42200851px;font-family:HACKED;-inkscape-font-specification:HACKED;fill:#ffffff">301</flowPara><flowPara
         style="font-size:25.42200851px;fill:#ffffff"
         id="flowPara4569" /></flowRoot>    <flowRoot
       xml:space="preserve"
       id="flowRoot4559-5"
       style="font-style:normal;font-weight:normal;font-size:40px;line-height:125%;font-family:sans-serif;letter-spacing:0px;word-spacing:0px;fill:#828746;fill-opacity:1;stroke:none;stroke-width:1px;stroke-linecap:butt;stroke-linejoin:miter;stroke-opacity:1"
       transform="matrix(1.9414447,0,0,2.881988,-141.32806,669.68674)"><flowRegion
         id="flowRegion4561-62"><rect
           id="rect4563-9"
           width="471.47989"
           height="95.381775"
           x="111.42857"
           y="66.951622"
           style="fill:#828746;fill-opacity:1" /></flowRegion><flowPara
         id="flowPara4565-1"
         style="font-style:normal;font-variant:normal;font-weight:normal;font-stretch:normal;font-size:25.42200851px;font-family:Helvetica-grosse-bit;-inkscape-font-specification:Helvetica-grosse-bit;text-align:center;text-anchor:middle;fill:#ffffff;fill-opacity:1">Aprendizaje colaborativo</flowPara><flowPara
         style="font-style:normal;font-variant:normal;font-weight:normal;font-stretch:normal;font-size:25.42200851px;font-family:Helvetica-grosse-bit;-inkscape-font-specification:Helvetica-grosse-bit;fill:#ffffff;fill-opacity:1"
         id="flowPara4569-2">instalaci<flowSpan
   style="-inkscape-font-specification:HACKED;font-family:HACKED;font-weight:normal;font-style:normal;font-stretch:normal;font-variant:normal"
   id="flowSpan3688">ó</flowSpan>N de wordpress y nextcloud</flowPara></flowRoot>    <flowRoot
       xml:space="preserve"
       id="flowRoot4559-5-7"
       style="font-style:normal;font-weight:normal;font-size:40px;line-height:125%;font-family:sans-serif;letter-spacing:0px;word-spacing:0px;fill:#f9f9f9;fill-opacity:1;stroke:none;stroke-width:1px;stroke-linecap:butt;stroke-linejoin:miter;stroke-opacity:1"
       transform="matrix(2.1177052,0,0,3.1436389,-190.44685,364.42139)"><flowRegion
         id="flowRegion4561-62-0"><rect
           id="rect4563-9-9"
           width="757.14288"
           height="285.71429"
           x="111.42857"
           y="66.951622"
           style="fill:#f9f9f9" /></flowRegion><flowPara
         id="flowPara4565-1-3"
         style="font-style:normal;font-variant:normal;font-weight:normal;font-stretch:normal;font-size:16.91030312px;font-family:Helvetica-grosse-bit;-inkscape-font-specification:Helvetica-grosse-bit;fill:#f9f9f9">martes <flowSpan
   style="font-style:normal;font-variant:normal;font-weight:normal;font-stretch:normal;font-family:HACKED;-inkscape-font-specification:HACKED"
   id="flowSpan3684">30/05/2017</flowSpan></flowPara><flowPara
         style="font-style:normal;font-variant:normal;font-weight:normal;font-stretch:normal;font-size:16.91030312px;font-family:Helvetica-grosse-bit;-inkscape-font-specification:Helvetica-grosse-bit;fill:#f9f9f9"
         id="flowPara3680">Tras asamblea (<flowSpan
   style="font-style:normal;font-variant:normal;font-weight:normal;font-stretch:normal;font-family:HACKED;-inkscape-font-specification:HACKED"
   id="flowSpan3686">19:30)</flowSpan></flowPara><flowPara
         style="font-style:normal;font-variant:normal;font-weight:normal;font-stretch:normal;font-size:25.42200851px;font-family:HACKED;-inkscape-font-specification:HACKED;fill:#f9f9f9"
         id="flowPara4569-2-6" /></flowRoot>    <g
       id="g3605"
       transform="matrix(0.77769467,0,0,0.77769467,-185.1147,-574.13091)"
       style="fill:#ffffff">
      <g
         id="g3601"
         style="fill:#ffffff">
        <g
           id="g3598"
           style="fill:#ffffff">
          <path
             inkscape:connector-curvature="0"
             id="path3596"
             d="m 660.61408,1364.0652 c -25.46286,-2.6409 -47.93079,-17.7783 -59.99687,-40.4218 -1.95688,-3.6724 -3.19655,-6.5491 -4.851,-11.2572 l -1.29799,-3.6936 -0.82477,1.6276 c -5.87875,11.6012 -16.48897,20.7202 -28.96645,24.8954 -9.30942,3.1151 -20.80407,3.137 -30.18348,0.058 -7.93706,-2.6059 -13.80382,-6.2501 -19.92645,-12.3774 -7.31328,-7.3189 -11.55721,-15.1841 -13.75558,-25.493 -0.5814,-2.7264 -0.69125,-4.1982 -0.69125,-9.2614 0,-6.7437 0.46754,-9.7572 2.42544,-15.6329 4.51261,-13.5424 15.59535,-25.2224 28.84981,-30.4047 6.34245,-2.4798 11.22919,-3.3762 18.38603,-3.3728 7.37904,0 13.5801,1.3479 20.16012,4.3708 9.49198,4.3605 18.23543,12.5804 23.09144,21.7088 l 1.45233,2.7301 1.29648,-3.669 c 2.61374,-7.3967 4.73526,-11.6935 8.7885,-17.7998 10.60839,-15.9817 26.86958,-27.44 45.38878,-31.9828 15.14818,-3.7158 31.46431,-2.6179 45.77109,3.0801 20.71277,8.2493 37.0545,25.2766 44.24979,46.1062 0.61861,1.7908 1.21911,3.256 1.33443,3.256 0.11532,0 0.52737,-0.6599 0.91567,-1.4664 2.34928,-4.8796 8.32747,-11.9743 13.46352,-15.9781 7.8736,-6.1378 17.36644,-9.7804 26.85814,-10.3061 11.4719,-0.6353 21.3323,2.0017 30.7104,8.213 2.6346,1.7448 4.6028,3.4025 7.5911,6.3931 4.3777,4.381 6.8483,7.7567 9.3849,12.8227 9.7326,19.4379 5.6685,42.2907 -10.2465,57.6173 -6.6789,6.432 -14.7832,10.7465 -24.0818,12.8204 -4.5182,1.0077 -13.1264,1.1525 -18.1035,0.3046 -6.9528,-1.1847 -13.09456,-3.6387 -19.17537,-7.6617 -6.27748,-4.1532 -13.57464,-12.1937 -16.40171,-18.0725 -0.38784,-0.8065 -0.80109,-1.4664 -0.91833,-1.4664 -0.11723,0 -0.74718,1.5629 -1.39988,3.4731 -0.65271,1.9101 -2.24446,5.6263 -3.53722,8.2581 -11.2208,22.8431 -32.57153,38.4125 -57.8262,42.1679 -3.81579,0.5675 -14.15608,0.8066 -17.93362,0.4149 z m 17.34368,-29.5715 c 8.7172,-1.9531 16.37176,-5.9889 22.53832,-11.8831 7.47991,-7.1495 12.01344,-15.4299 14.05442,-25.6702 0.97146,-4.8741 0.96291,-12.7655 -0.0192,-17.6986 -1.97061,-9.8985 -5.95174,-17.3864 -13.00687,-24.464 -7.27113,-7.2943 -15.45951,-11.5875 -25.32461,-13.2779 -4.05578,-0.695 -11.00104,-0.8194 -14.95119,-0.2679 -10.23392,1.4288 -19.48145,6.0492 -26.86589,13.423 -3.83511,3.8296 -6.47804,7.5223 -8.83136,12.3394 -2.09436,4.2869 -3.05776,7.0484 -4.03875,11.5767 -0.60224,2.78 -0.70222,4.1426 -0.70222,9.5702 0,5.3614 0.10337,6.8034 0.67642,9.4357 1.81149,8.3208 5.05899,14.9926 10.4562,21.4814 6.53811,7.8606 16.89717,13.7766 27.48096,15.6943 4.59175,0.832 14.26775,0.6968 18.53374,-0.259 z m -121.95944,-26.7526 c 3.52942,-1.1833 5.52431,-2.4259 8.17564,-5.0928 2.57401,-2.5891 4.47147,-5.9132 5.3733,-9.4133 0.62545,-2.4274 0.62545,-7.7601 0,-10.1875 -1.80554,-7.0075 -7.12173,-12.5718 -14.05453,-14.7104 -1.86741,-0.576 -3.03207,-0.7153 -6.01992,-0.7198 -3.26365,0 -4.02993,0.1011 -6.43819,0.8904 -8.6501,2.8351 -14.09129,10.4164 -14.09129,19.6336 0,5.3787 1.75774,10.1244 5.13021,13.8511 2.91167,3.2175 7.45562,5.7607 11.63985,6.5148 2.7944,0.5036 7.55567,0.149 10.28493,-0.7661 z m 233.85819,0.6488 c 9.9265,-1.907 16.6206,-10.0623 16.6206,-20.2486 0,-9.1972 -5.4511,-16.802 -14.0679,-19.6259 -2.4752,-0.8113 -3.1514,-0.9015 -6.6159,-0.883 -3.3275,0.018 -4.1991,0.1342 -6.3287,0.846 -3.1901,1.0662 -5.2008,2.2436 -7.5573,4.4254 -4.4104,4.0832 -6.5543,9.0573 -6.5677,15.2375 -0.012,5.6728 2.0053,10.6309 5.915,14.5358 5.0417,5.0355 11.6167,7.0547 18.6019,5.7128 z"
             style="fill:#ffffff"
             sodipodi:nodetypes="csscsscsssssccscsssssscsscsssscssscsccccssssssscssssscccsssccsssscsscccccss" />
        </g>
      </g>
    </g>
    <path
       style="fill:#ffffff"
       d="m 107.44747,498.29075 c -9.878727,-1.06556 -21.35924,-4.71708 -29.765129,-9.46721 -30.607678,-17.29617 -45.865113,-52.58624 -37.393252,-86.4895 9.813952,-39.27415 48.170981,-64.35539 88.143131,-57.63583 25.28799,4.25107 47.16519,21.14851 57.74754,44.60284 8.11686,17.9899 8.98446,38.34125 2.44918,57.45053 -1.63858,4.79121 -5.24553,12.13826 -8.10598,16.51114 -12.13627,18.55317 -30.80931,30.69307 -52.99518,34.45363 -4.497,0.76224 -15.43769,1.07525 -20.08031,0.5744 z m 18.00317,-3.84537 c 28.1831,-3.95836 51.43861,-23.35771 60.36872,-50.35868 2.5031,-7.56837 3.56376,-14.45565 3.55023,-23.0533 -0.0189,-11.97115 -2.25826,-21.70456 -7.42144,-32.25639 -8.38786,-17.14196 -22.97294,-30.38658 -40.82477,-37.07272 -12.11178,-4.53629 -26.687,-5.73228 -39.65908,-3.25427 -29.372068,5.61082 -53.042154,29.28091 -58.652982,58.65295 -2.041674,10.68799 -1.62185,22.33702 1.193429,33.11434 5.317362,20.35565 19.840996,37.93523 39.133573,47.36767 8.834425,4.31926 17.4456,6.62697 27.73736,7.43344 2.80177,0.21952 11.3151,-0.11514 14.57496,-0.57304 z m -14.2633,-6.89839 c -5.40022,-0.52494 -12.840518,-1.86989 -13.985774,-2.5281 -0.352318,-0.20253 1.485179,-5.84322 9.371464,-28.76841 5.39534,-15.6841 9.90295,-28.61048 10.01691,-28.7254 0.11396,-0.11485 4.84411,12.50719 10.51145,28.04905 l 10.30424,28.25789 -1.57789,0.55641 c -2.64617,0.93308 -7.31709,2.02696 -10.91249,2.55569 -3.35327,0.49303 -11.27737,0.84103 -13.72791,0.60287 z m -28.427542,-8.51643 c -5.926526,-3.40439 -10.26074,-6.79896 -15.21361,-11.91537 -9.469742,-9.78244 -15.349044,-21.55478 -17.806563,-35.65476 -0.404654,-2.32162 -0.543623,-4.90829 -0.551839,-10.27125 -0.01219,-7.98238 0.525312,-12.14879 2.367444,-18.34962 0.955267,-3.21557 2.676648,-7.96693 3.027833,-8.35748 0.107023,-0.11901 7.060451,18.6037 15.452067,41.60603 8.391615,23.00232 15.508488,42.48856 15.81526,43.30278 0.306773,0.81421 0.453162,1.47765 0.325298,1.47435 -0.127856,0 -1.665008,-0.82891 -3.41589,-1.83468 z m 66.439842,-1.19791 c 0.11704,-0.29996 4.67907,-13.44794 10.13783,-29.21771 5.45876,-15.76977 10.43767,-30.07479 11.06424,-31.78889 2.80409,-7.67117 4.04749,-14.96625 3.8196,-22.40992 -0.11923,-3.89446 -0.0759,-4.55477 0.26821,-4.08421 0.76242,1.04268 3.57605,8.05025 4.63504,11.54395 8.47185,27.94939 -2.39105,58.29332 -26.67248,74.50558 -1.64469,1.09811 -3.09721,1.99656 -3.22781,1.99656 -0.1306,0 -0.14168,-0.2454 -0.0246,-0.54536 z M 98.757312,461.23698 c -0.36589,-0.89128 -23.877869,-70.86571 -23.877869,-71.06337 0,-0.10924 1.821269,-0.36059 4.047272,-0.55857 2.226002,-0.19797 4.319696,-0.53009 4.652657,-0.73802 1.402428,-0.87583 1.662844,-3.01093 0.508078,-4.1657 -0.905355,-0.90536 -1.36114,-0.92591 -9.675492,-0.43642 -3.085388,0.18165 -7.610576,0.28723 -10.055958,0.2346 l -4.446162,-0.0957 2.57417,-3.42822 c 7.839168,-10.44 19.2289,-18.65774 31.579434,-22.7847 8.261508,-2.76059 15.025338,-3.74925 23.648318,-3.45661 7.38622,0.25066 13.33728,1.34131 20.01074,3.66737 6.48615,2.26076 15.0615,7.16034 20.51365,11.72058 l 2.1704,1.81535 -2.04247,0.20314 c -5.3267,0.52981 -9.54102,5.18394 -9.87205,10.9023 -0.24242,4.18758 0.82293,7.11739 5.27996,14.52043 2.91125,4.83555 4.60899,8.54228 5.64196,12.31833 0.59457,2.1735 0.70281,3.34209 0.69992,7.55753 -0.004,5.88331 -0.21507,6.87259 -4.35479,20.41344 -1.44111,4.71379 -3.55256,11.72603 -4.69211,15.5828 -1.13955,3.8567 -2.17431,7.12079 -2.29947,7.25342 -0.12515,0.1327 -5.53517,-15.57477 -12.02226,-34.90544 -6.48709,-19.33059 -11.84946,-35.30461 -11.91638,-35.49773 -0.0816,-0.23548 0.88516,-0.42482 2.93556,-0.57492 4.37671,-0.3204 5.75658,-0.62633 6.398,-1.41845 0.78569,-0.97029 0.70679,-2.58652 -0.17641,-3.6133 l -0.73133,-0.85022 -8.26499,0.41458 c -7.85623,0.39407 -15.99366,0.33289 -25.991004,-0.19541 -3.567194,-0.18851 -3.810059,-0.16332 -4.433167,0.45979 -1.286021,1.28602 -1.151396,3.46126 0.269126,4.34838 0.337873,0.21101 2.344747,0.54673 4.459722,0.74605 l 3.845403,0.36241 5.1613,14.14417 5.16131,14.14422 -7.25658,21.72068 c -3.99112,11.94634 -7.342935,21.51026 -7.448488,21.25317 z"
       id="path3594"
       inkscape:connector-curvature="0" />
    <flowRoot
       xml:space="preserve"
       id="flowRoot4559-2"
       style="font-style:normal;font-weight:normal;font-size:40px;line-height:125%;font-family:sans-serif;letter-spacing:0px;word-spacing:0px;fill:#ffffff;fill-opacity:1;stroke:none;stroke-width:1px;stroke-linecap:butt;stroke-linejoin:miter;stroke-opacity:1"
       transform="matrix(2.6409691,0,0,4.1454089,208.22113,28.715265)"><flowRegion
         id="flowRegion4561-0"><rect
           id="rect4563-1"
           width="757.14288"
           height="285.71429"
           x="111.42857"
           y="66.951622"
           style="fill:#ffffff" /></flowRegion><flowPara
         id="flowPara4565-9"
         style="font-style:normal;font-variant:normal;font-weight:normal;font-stretch:normal;font-size:25.42200851px;font-family:Helvetica-grosse-bit;-inkscape-font-specification:Helvetica-grosse-bit;fill:#ffffff">INGOBERLAB</flowPara><flowPara
         style="font-size:25.42200851px;fill:#ffffff"
         id="flowPara4569-6" /></flowRoot>  </g>
</svg>
